<svg viewBox="-0.5 -0.5 16 16" fill="none" xmlns="http://www.w3.org/2000/svg" id="Search--Streamline-Unicons" height="16" width="16"><desc>Search Streamline Icon: https://streamlinehq.com</desc><path d="m14.6435625 13.6060625 -2.7251874999999997 -2.7031875c1.0578124999999998 -1.3189375 1.570125 -2.993125 1.4315 -4.6781875 -0.138625 -1.6850625 -0.9175625 -3.2529999999999997 -2.17675 -4.3814375C9.9140625 0.7148749999999999 8.270375 0.11181250000000001 6.5802499999999995 0.1580625 4.8900625 0.2043125 3.2818750000000003 0.8963749999999999 2.0863125 2.0919375000000002S0.19875 4.8956875 0.1525 6.5858125c-0.04625 1.690125 0.5568125 3.3338125 1.6851875 4.5929375 1.128375 1.2591875 2.6963125 2.038125 4.3814375 2.1766875 1.6850625 0.138625 3.3591875 -0.373625 4.6781875 -1.4315l2.7031875 2.7031875c0.0683125 0.0688125 0.14956250000000001 0.1235 0.2390625 0.16081249999999997 0.0895 0.0373125 0.1855 0.056499999999999995 0.28250000000000003 0.056499999999999995s0.19293749999999998 -0.0191875 0.28250000000000003 -0.056499999999999995c0.0895 -0.0373125 0.1706875 -0.092 0.23900000000000002 -0.16081249999999997 0.132375 -0.137 0.2064375 -0.3200625 0.2064375 -0.5105s-0.0740625 -0.3735625 -0.2064375 -0.5105Zm-7.867125000000001 -1.6821249999999999c-1.017 0 -2.011125 -0.3015625 -2.85675 -0.8665625 -0.8455625 -0.5650000000000001 -1.5046249999999999 -1.3680625 -1.8938125000000001 -2.3076250000000003 -0.3891875 -0.9395625000000001 -0.491 -1.9735 -0.2925625 -2.970875 0.19837500000000002 -0.9974375000000001 0.688125 -1.9136875 1.4071875 -2.6327499999999997 0.719125 -0.719125 1.6353125 -1.208875 2.6327499999999997 -1.40725 0.9974375000000001 -0.1984375 2.031375 -0.0965625 2.9709375 0.292625 0.9395625000000001 0.38912500000000005 1.7425625 1.0481875 2.3076250000000003 1.8938125000000001 0.5650000000000001 0.8455625 0.8665625 1.8396875 0.8665625 2.8566875000000005 0 1.36375 -0.54175 2.671625 -1.5060625 3.6359375 -0.9643124999999999 0.9642499999999999 -2.2721875 1.5060000000000002 -3.635875 1.5060000000000002Z" fill="#000000" stroke-width="1"></path></svg>