<svg xmlns="http://www.w3.org/2000/svg" fill="none" viewBox="0 0 48 48" id="Search--Streamline-Ionic-Filled" height="48" width="48"><desc>Search Streamline Icon: https://streamlinehq.com</desc><path fill="#000000" d="M46.7991 42.7982 36.1353 32.1345c2.5673 -3.4179 3.9533 -7.5779 3.9485 -11.8525C40.0838 9.3632 31.2007 0.48 20.282 0.48S0.4801 9.3632 0.4801 20.282c0 10.9186 8.8832 19.8019 19.8019 19.8019 4.2747 0.0046 8.4347 -1.3813 11.8526 -3.9487L42.7982 46.799c0.5398 0.4825 1.2439 0.74 1.9677 0.7199 0.7238 -0.0203 1.4123 -0.317 1.9242 -0.8288 0.5119 -0.512 0.8086 -1.2005 0.8288 -1.9243 0.0202 -0.7238 -0.2373 -1.4277 -0.7198 -1.9676ZM6.1377 20.282c0 -2.7975 0.8295 -5.5322 2.3838 -7.8582 1.5542 -2.3259 3.7632 -4.1388 6.3477 -5.2095 2.5845 -1.0705 5.4284 -1.3506 8.1722 -0.8048 2.7436 0.5457 5.2639 1.8927 7.2421 3.8709 1.9781 1.9782 3.3252 4.4984 3.8709 7.2422 0.5457 2.7436 0.2656 5.5876 -0.8049 8.1721 -1.0706 2.5845 -2.8835 4.7935 -5.2095 6.3477 -2.3259 1.5543 -5.0605 2.3837 -7.858 2.3837 -3.7499 -0.0044 -7.3449 -1.4961 -9.9966 -4.1477 -2.6515 -2.6516 -4.1432 -6.2466 -4.1477 -9.9964Z" stroke-width="1"></path></svg>