<svg xmlns="http://www.w3.org/2000/svg" fill="none" viewBox="-0.5 -0.5 24 24" height="24" width="24" id="Notifications-Fill--Streamline-Sharp-Fill---Material-Symbols">
  <path fill="#000000" d="M3.8333333333333335 18.208333333333336V16.770833333333336H5.75V9.4875C5.75 8.145833333333334 6.1453125 6.943939583333334 6.9359375000000005 5.881770833333333C7.7265625 4.819602083333333 8.76875 4.152779375 10.0625 3.88125V1.9166666666666667H12.9375V3.88125C14.231250000000001 4.152779375 15.2734375 4.819602083333333 16.0640625 5.881770833333333C16.8546875 6.943939583333334 17.25 8.145833333333334 17.25 9.4875V16.770833333333336H19.166666666666668V18.208333333333336H3.8333333333333335ZM11.5 21.083333333333336C10.972916666666666 21.083333333333336 10.521685416666667 20.89564375 10.146354166666667 20.520312500000003C9.771022916666666 20.14498125 9.583333333333334 19.69375 9.583333333333334 19.166666666666668H13.416666666666668C13.416666666666668 19.69375 13.228977083333334 20.14498125 12.853645833333333 20.520312500000003C12.478314583333333 20.89564375 12.027083333333335 21.083333333333336 11.5 21.083333333333336Z" stroke-width="1"></path>
</svg>