<svg xmlns="http://www.w3.org/2000/svg" fill="none" viewBox="-0.5 -0.5 24 24" height="24" width="24" id="Help-Fill--Streamline-Sharp-Fill---Material-Symbols">
  <path fill="#000000" d="M11.595833333333333 17.082291666666666C11.851372916666667 17.082291666666666 12.066997916666667 16.99446041666667 12.242708333333335 16.81875C12.41841875 16.643039583333334 12.506250000000001 16.427414583333334 12.506250000000001 16.171875C12.506250000000001 15.91633541666667 12.41841875 15.700710416666668 12.242708333333335 15.525C12.066997916666667 15.349289583333332 11.851372916666667 15.261458333333335 11.595833333333333 15.261458333333335C11.340293749999999 15.261458333333335 11.12466875 15.349289583333332 10.948958333333334 15.525C10.773247916666667 15.700710416666668 10.685416666666667 15.91633541666667 10.685416666666667 16.171875C10.685416666666667 16.427414583333334 10.773247916666667 16.643039583333334 10.948958333333334 16.81875C11.12466875 16.99446041666667 11.340293749999999 17.082291666666666 11.595833333333333 17.082291666666666ZM10.757291666666667 13.584375000000001H12.170833333333333C12.170833333333333 13.16908125 12.222727083333334 12.789772916666667 12.326562500000001 12.446354166666667C12.430397916666667 12.102935416666666 12.753835416666668 11.707622916666667 13.296875 11.260416666666668C13.791997916666668 10.845122916666666 14.14341875 10.43783125 14.351041666666667 10.038541666666667C14.558664583333334 9.639252083333334 14.662500000000001 9.2 14.662500000000001 8.720833333333333C14.662500000000001 7.874289583333333 14.386979166666666 7.195502083333333 13.8359375 6.684375C13.284895833333335 6.173247916666667 12.554166666666667 5.917708333333334 11.64375 5.917708333333334C10.861127083333333 5.917708333333334 10.170312500000001 6.113352083333334 9.571354166666667 6.5046875C8.972395833333334 6.896022916666667 8.537168750000001 7.435085416666667 8.265625 8.121875L9.535416666666666 8.601041666666667C9.711127083333334 8.153835416666666 9.974668750000001 7.806439583333333 10.326041666666667 7.558854166666667C10.677414583333334 7.31126875 11.092708333333333 7.1875 11.571875 7.1875C12.114914583333334 7.1875 12.554166666666667 7.335227083333333 12.889583333333333 7.630729166666668C13.225000000000001 7.92623125 13.392708333333333 8.305539583333335 13.392708333333333 8.76875C13.392708333333333 9.120122916666666 13.288872916666667 9.451562500000001 13.08125 9.763020833333334C12.873627083333334 10.074479166666666 12.570122916666667 10.397916666666667 12.170833333333333 10.733333333333333C11.691666666666666 11.148627083333334 11.33626875 11.559895833333334 11.1046875 11.967187500000001C10.873106250000001 12.374479166666667 10.757291666666667 12.913541666666667 10.757291666666667 13.584375000000001ZM11.5 21.083333333333336C10.19029375 21.083333333333336 8.952414583333333 20.831770833333334 7.786458333333334 20.328645833333333C6.620502083333334 19.825520833333336 5.602272916666667 19.13873125 4.731770833333334 18.268229166666668C3.861283125 17.397727083333336 3.174479166666667 16.37949791666667 2.6713541666666667 15.213541666666668C2.168229166666667 14.047585416666667 1.9166666666666667 12.80970625 1.9166666666666667 11.5C1.9166666666666667 10.174289583333334 2.168229166666667 8.92845625 2.6713541666666667 7.7625C3.174479166666667 6.59654375 3.861283125 5.582291666666667 4.731770833333334 4.719791666666667C5.602272916666667 3.8572916666666672 6.620502083333334 3.174479166666667 7.786458333333334 2.6713541666666667C8.952414583333333 2.168229166666667 10.19029375 1.9166666666666667 11.5 1.9166666666666667C12.825710416666666 1.9166666666666667 14.071543750000002 2.168229166666667 15.2375 2.6713541666666667C16.40345625 3.174479166666667 17.417708333333334 3.8572916666666672 18.280208333333334 4.719791666666667C19.142708333333335 5.582291666666667 19.825520833333336 6.59654375 20.328645833333333 7.7625C20.831770833333334 8.92845625 21.083333333333336 10.174289583333334 21.083333333333336 11.5C21.083333333333336 12.80970625 20.831770833333334 14.047585416666667 20.328645833333333 15.213541666666668C19.825520833333336 16.37949791666667 19.142708333333335 17.397727083333336 18.280208333333334 18.268229166666668C17.417708333333334 19.13873125 16.40345625 19.825520833333336 15.2375 20.328645833333333C14.071543750000002 20.831770833333334 12.825710416666666 21.083333333333336 11.5 21.083333333333336Z" stroke-width="1"></path>
</svg>