<svg id="Home--Streamline-Carbon" xmlns="http://www.w3.org/2000/svg" viewBox="-0.5 -0.5 16 16" height="16" width="16"><desc>Home Streamline Icon: https://streamlinehq.com</desc><defs></defs><path id="_Transparent_Rectangle_" d="M0 0h15v15H0Z" fill="none" stroke-width="1"></path><path d="M7.787015625 1.03771875a0.4734375 0.4734375 0 0 0 -0.582515625 0L0.46875 6.29034375l0.582515625 0.736734375L1.875 6.384796875V12.1875a0.9394218750000001 0.9394218750000001 0 0 0 0.9375 0.9375h9.375a0.939234375 0.939234375 0 0 0 0.9375 -0.9375V6.3890625000000005L13.948734375 7.03125 14.53125 6.29446875ZM8.4375 12.1875h-1.875v-3.75h1.875Zm0.9375 0v-3.75a0.938578125 0.938578125 0 0 0 -0.9375 -0.9375h-1.875a0.9384374999999999 0.9384374999999999 0 0 0 -0.9375 0.9375v3.75H2.8125V5.653828125l4.6875 -3.6515625 4.6875 3.6564843750000002V12.1875Z" stroke-width="1"></path></svg>