<svg xmlns="http://www.w3.org/2000/svg" fill="none" viewBox="-0.5 -0.5 24 24" height="24" width="24" id="Settings-Fill--Streamline-Sharp-Fill---Material-Symbols">
  <path fill="#000000" d="M9.295833333333333 21.083333333333336L8.816666666666666 18.064583333333335C8.513210416666666 17.95279375 8.193750000000001 17.801041666666666 7.858333333333333 17.609375C7.522916666666666 17.417708333333334 7.227414583333333 17.218039583333336 6.971875000000001 17.010416666666668L4.144791666666667 18.304166666666667L1.9166666666666667 14.375L4.504166666666667 12.482291666666667C4.472220625 12.338541666666668 4.452258541666667 12.174810416666668 4.444270833333333 11.991145833333333C4.436283125000001 11.80748125 4.432291666666667 11.64375 4.432291666666667 11.5C4.432291666666667 11.35625 4.436283125000001 11.19251875 4.444270833333333 11.008854166666667C4.452258541666667 10.825189583333334 4.472220625 10.661458333333334 4.504166666666667 10.517708333333333L1.9166666666666667 8.625L4.144791666666667 4.695833333333334L6.971875000000001 5.989583333333334C7.227414583333333 5.781960416666667 7.522916666666666 5.582291666666667 7.858333333333333 5.390625C8.193750000000001 5.198958333333334 8.513210416666666 5.055208333333334 8.816666666666666 4.959375L9.295833333333333 1.9166666666666667H13.704166666666667L14.183333333333335 4.935416666666667C14.486789583333334 5.04720625 14.810227083333334 5.19498125 15.153645833333334 5.378645833333334C15.497064583333335 5.562310416666667 15.788541666666669 5.76595625 16.028125000000003 5.989583333333334L18.855208333333334 4.695833333333334L21.083333333333336 8.625L18.495833333333334 10.469791666666667C18.52779375 10.629497916666667 18.547727083333335 10.801231249999999 18.55572916666667 10.984895833333335C18.56373125 11.168560416666667 18.567708333333336 11.340293749999999 18.567708333333336 11.5C18.567708333333336 11.659706250000001 18.56373125 11.827414583333333 18.55572916666667 12.003125C18.547727083333335 12.178835416666667 18.52779375 12.34654375 18.495833333333334 12.506250000000001L21.083333333333336 14.375L18.855208333333334 18.304166666666667L16.028125000000003 17.010416666666668C15.772585416666667 17.218039583333336 15.481060416666669 17.421685416666666 15.153645833333334 17.621354166666666C14.826231250000001 17.821022916666667 14.50279375 17.96875 14.183333333333335 18.064583333333335L13.704166666666667 21.083333333333336H9.295833333333333ZM11.5 14.614583333333334C12.3625 14.614583333333334 13.097206250000001 14.311127083333334 13.704166666666667 13.704166666666667C14.311127083333334 13.097206250000001 14.614583333333334 12.3625 14.614583333333334 11.5C14.614583333333334 10.6375 14.311127083333334 9.902793749999999 13.704166666666667 9.295833333333333C13.097206250000001 8.688872916666666 12.3625 8.385416666666668 11.5 8.385416666666668C10.6375 8.385416666666668 9.902793749999999 8.688872916666666 9.295833333333333 9.295833333333333C8.688872916666666 9.902793749999999 8.385416666666668 10.6375 8.385416666666668 11.5C8.385416666666668 12.3625 8.688872916666666 13.097206250000001 9.295833333333333 13.704166666666667C9.902793749999999 14.311127083333334 10.6375 14.614583333333334 11.5 14.614583333333334Z" stroke-width="1"></path>
</svg>