  <svg
                    xmlns="http://www.w3.org/2000/svg"
                    fill="none"
                    viewBox="-0.5 -0.5 24 24"
                    id="Apple--Streamline-Svg-Logos"
                    height="24"
                    width="24"
                  >
                    <desc>Apple Streamline Icon: https://streamlinehq.com</desc>
                    <path
                      fill="#000"
                      d="M17.64622291666667 12.204183333333333c0.03164895833333333 3.4081208333333333 2.9898322916666666 4.542260416666667 3.0226072916666666 4.55673125 -0.025012500000000003 0.079996875 -0.47267395833333337 1.616253125 -1.5585135416666667 3.2031093750000004 -0.9386635416666667 1.3719260416666668 -1.9128572916666666 2.7388208333333335 -3.4475322916666666 2.767115625 -1.5079614583333334 0.02779166666666667 -1.9928302083333334 -0.8942208333333334 -3.716871875 -0.8942208333333334 -1.723490625 0 -2.2622416666666667 0.8659260416666668 -3.6896791666666666 0.9220125 -1.48134375 0.05606250000000001 -2.60935 -1.4835479166666667 -3.5558239583333333 -2.8504427083333335C2.766444791666667 17.112479166666667 1.2884791666666668 12.007605208333333 3.2729958333333333 8.561726041666667c0.9858854166666667 -1.7112479166666668 2.7477093750000003 -2.794859375 4.6599916666666665 -2.8226510416666666 1.4546541666666668 -0.02774375 2.8276583333333334 0.9786260416666667 3.716871875 0.9786260416666667 0.8886864583333334 0 2.55716875 -1.2102552083333333 4.31120625 -1.0325083333333334 0.734275 0.030546875 2.7954583333333334 0.29660416666666667 4.118988541666667 2.2339229166666668 -0.10663854166666667 0.06610104166666667 -2.4593947916666665 1.435775 -2.43383125 4.285067708333334Zm-2.8340312500000002 -8.368813541666668C15.598647916666668 2.8834093750000003 16.127983333333333 1.5581757291666667 15.9835625 0.23958333333333334c-1.1335885416666667 0.04556156250000001 -2.5043885416666667 0.7554062500000001 -3.3175104166666665 1.7068515625 -0.7286927083333334 0.8425546875000001 -1.3668708333333333 2.1910973958333333 -1.1946822916666668 3.4836015625 1.2635385416666667 0.09775 2.5543416666666667 -0.6420833333333335 3.340821875 -1.5946666666666667Z"
                      stroke-width="1"
                    ></path>
                  </svg>