<svg
                    xmlns="http://www.w3.org/2000/svg"
                    fill="none"
                    viewBox="-0.5 -0.5 24 24"
                    id="Slack-Icon--Streamline-Svg-Logos"
                    height="24"
                    width="24"
                  >
                    <desc>
                      Slack Icon Streamline Icon: https://streamlinehq.com
                    </desc>
                    <path
                      fill="#E01E5A"
                      d="M4.987286458333334 14.474091666666668c0 1.3078854166666667 -1.057065625 2.3649510416666666 -2.3649750000000003 2.3649510416666666 -1.3078830208333334 0 -2.36494625 -1.057065625 -2.36494625 -2.3649510416666666 0 -1.3078854166666667 1.0570632291666666 -2.3649510416666666 2.36494625 -2.3649510416666666h2.3649750000000003v2.3649510416666666Zm1.1824635416666667 0c0 -1.3078854166666667 1.057065625 -2.3649510416666666 2.3649510416666666 -2.3649510416666666 1.3079093750000002 0 2.3649750000000003 1.057065625 2.3649750000000003 2.3649510416666666v5.912389583333334c0 1.3078854166666667 -1.057065625 2.3649510416666666 -2.3649750000000003 2.3649510416666666 -1.3078854166666667 0 -2.3649510416666666 -1.057065625 -2.3649510416666666 -2.3649510416666666V14.474091666666668Z"
                      stroke-width="1"
                    ></path>
                    <path
                      fill="#36C5F0"
                      d="M8.534844791666666 4.97849375c-1.3078854166666667 0 -2.3649510416666666 -1.057065625 -2.3649510416666666 -2.3649510416666666 0 -1.3078878125000002 1.057065625 -2.3649510416666666 2.3649510416666666 -2.3649510416666666 1.3078854166666667 0 2.3649510416666666 1.0570632291666666 2.3649510416666666 2.3649510416666666v2.3649510416666666h-2.3649510416666666Zm0 1.2004083333333333c1.3078854166666667 0 2.3649510416666666 1.057065625 2.3649510416666666 2.3649510416666666 0 1.3078854166666667 -1.057065625 2.3649510416666666 -2.3649510416666666 2.3649510416666666H2.604534375C1.2966465625 10.908804166666668 0.23958333333333334 9.851738541666666 0.23958333333333334 8.543853125c0 -1.3078854166666667 1.0570632291666666 -2.3649510416666666 2.3649510416666666 -2.3649510416666666h5.930310416666667Z"
                      stroke-width="1"
                    ></path>
                    <path
                      fill="#2EB67D"
                      d="M18.012521875 8.543853125c0 -1.3078854166666667 1.057065625 -2.3649510416666666 2.3649510416666666 -2.3649510416666666 1.3078854166666667 0 2.3649510416666666 1.057065625 2.3649510416666666 2.3649510416666666 0 1.3078854166666667 -1.057065625 2.3649510416666666 -2.3649510416666666 2.3649510416666666h-2.3649510416666666v-2.3649510416666666Zm-1.1824875000000001 0c0 1.3078854166666667 -1.057065625 2.3649510416666666 -2.3649510416666666 2.3649510416666666 -1.3078854166666667 0 -2.3649510416666666 -1.057065625 -2.3649510416666666 -2.3649510416666666V2.613542708333333c0 -1.3078878125000002 1.057065625 -2.3649510416666666 2.3649510416666666 -2.3649510416666666 1.3078854166666667 0 2.3649510416666666 1.0570632291666666 2.3649510416666666 2.3649510416666666v5.930310416666667Z"
                      stroke-width="1"
                    ></path>
                    <path
                      fill="#ECB22E"
                      d="M14.465083333333334 18.02153020833333c1.3078854166666667 0 2.3649510416666666 1.057065625 2.3649510416666666 2.3649510416666666 0 1.3078854166666667 -1.057065625 2.3649510416666666 -2.3649510416666666 2.3649510416666666 -1.3078854166666667 0 -2.3649510416666666 -1.057065625 -2.3649510416666666 -2.3649510416666666v-2.3649510416666666h2.3649510416666666Zm0 -1.1824875000000001c-1.3078854166666667 0 -2.3649510416666666 -1.057065625 -2.3649510416666666 -2.3649510416666666 0 -1.3078854166666667 1.057065625 -2.3649510416666666 2.3649510416666666 -2.3649510416666666h5.930310416666667c1.3078854166666667 0 2.3649510416666666 1.057065625 2.3649510416666666 2.3649510416666666 0 1.3078854166666667 -1.057065625 2.3649510416666666 -2.3649510416666666 2.3649510416666666H14.465083333333334Z"
                      stroke-width="1"
                    ></path>
                  </svg>